# xmcd
#
# Track frame offsets: 
#        150
#        13631
#        32407
#        51086
#        70777
#        82788
#        102295
#        121252
#        143338
#        158360
#        168518
#        183912
#        199225
#
# Disc length: 2831 seconds
#
# Revision: 0
# Processed by: cddbd v1.5.2PL0 Copyright (c) Steve Scherf et al.
# Submitted via: ExactAudioCopyFreeDBPlugin 1.0
#
DISCID=930b0d0d
DTITLE=The Blue Canyon Boys - The Blue Canyon Boys
DYEAR=2015
DGENRE=Bluegrass
TTITLE0=Roll Muddy River
TTITLE1=One Lonely Thought of You
TTITLE2=The Road to Westcliffe
TTITLE3=Wake Up, The Party's Over
TTITLE4=Riding On That Northbound Train
TTITLE5=Get Down On Your Knees and Pray
TTITLE6=Just an Old Dirt Road
TTITLE7=Time
TTITLE8=Old George's Repent
TTITLE9=This Heart of Mine
TTITLE10=Shinjuku Station
TTITLE11=There Goes My Love
TTITLE12=Born to Be With You
EXTD=
EXTT0=
EXTT1=
EXTT2=
EXTT3=
EXTT4=
EXTT5=
EXTT6=
EXTT7=
EXTT8=
EXTT9=
EXTT10=
EXTT11=
EXTT12=
PLAYORDER=
